# xmcd
#
# Track frame offsets: 
#        150
#        22783
#        39252
#        63117
#        78936
#        104873
#        125576
#        144838
#        153398
#        170185
#        191253
#        216848
#        232047
#        258978
#
# Disc length: 3844 seconds
#
# Revision: 2
# Processed by: cddbd v1.5.2PL0 Copyright (c) Steve Scherf et al.
# Submitted via: ExactAudioCopy v1.0b1
#
DISCID=b80f020e
DTITLE=Bløf - April
DYEAR=2009
DGENRE=Country
TTITLE0=Aan iedereen die wacht
TTITLE1=Als dit alles over is
TTITLE2=Omdat het anders wordt
TTITLE3=Midzomernacht
TTITLE4=Overgave
TTITLE5=Blijf zoals nu
TTITLE6=Wapenbroeders
TTITLE7=Dagen zonder namen
TTITLE8=Je gelijk is geen geluk
TTITLE9=Misschien tot morgen
TTITLE10=Eilanden 2
TTITLE11=Gelukkig
TTITLE12=Vandaag
TTITLE13=Gegevens track
EXTD=
EXTT0=
EXTT1=
EXTT2=
EXTT3=
EXTT4=
EXTT5=
EXTT6=
EXTT7=
EXTT8=
EXTT9=
EXTT10=
EXTT11=
EXTT12=
EXTT13=
PLAYORDER=
